<?xml version="1.0" encoding="UTF-8" standalone="no"?>
<!-- Generator: Adobe Illustrator 24.3.0, SVG Export Plug-In . SVG Version: 6.00 Build 0)  -->

<svg
   xmlns:dc="http://purl.org/dc/elements/1.1/"
   xmlns:cc="http://creativecommons.org/ns#"
   xmlns:rdf="http://www.w3.org/1999/02/22-rdf-syntax-ns#"
   xmlns:svg="http://www.w3.org/2000/svg"
   xmlns="http://www.w3.org/2000/svg"
   xmlns:sodipodi="http://sodipodi.sourceforge.net/DTD/sodipodi-0.dtd"
   xmlns:inkscape="http://www.inkscape.org/namespaces/inkscape"
   version="1.1"
   id="Capa_1"
   x="0px"
   y="0px"
   viewBox="0 0 300 200"
   style="enable-background:new 0 0 300 200;"
   xml:space="preserve"
   sodipodi:docname="menu.svg"
   inkscape:version="0.92.5 (2060ec1f9f, 2020-04-08)"><metadata
   id="metadata1386"><rdf:RDF><cc:Work
       rdf:about=""><dc:format>image/svg+xml</dc:format><dc:type
         rdf:resource="http://purl.org/dc/dcmitype/StillImage" /><dc:title /></cc:Work></rdf:RDF></metadata><defs
   id="defs1384"><inkscape:perspective
   sodipodi:type="inkscape:persp3d"
   inkscape:vp_x="0 : 100 : 1"
   inkscape:vp_y="0 : 1000 : 0"
   inkscape:vp_z="300 : 100 : 1"
   inkscape:persp3d-origin="150 : 66.666667 : 1"
   id="perspective10383" />
	
	
	
	
	
	
	
	
	
	
	
	
	
	
	
	
	
	
	
	
	
	
	
	
	
	
	
</defs><sodipodi:namedview
   pagecolor="#ffffff"
   bordercolor="#666666"
   borderopacity="1"
   objecttolerance="10"
   gridtolerance="10"
   guidetolerance="10"
   inkscape:pageopacity="0"
   inkscape:pageshadow="2"
   inkscape:window-width="1920"
   inkscape:window-height="1027"
   id="namedview1382"
   showgrid="false"
   inkscape:zoom="1.5043697"
   inkscape:cx="170.27595"
   inkscape:cy="23.653862"
   inkscape:window-x="0"
   inkscape:window-y="27"
   inkscape:window-maximized="1"
   inkscape:current-layer="Capa_1" />
<style
   type="text/css"
   id="style1281">
	.st0{fill:#5F7993;}
	.st1{fill:#17B5C8;}
	.st2{fill:#11828F;}
	.st3{fill:#405162;}
	.st4{fill:#A6D100;}
	.st5{fill:#89AB00;}
	.st6{fill:#FFFFFF;}
	.st7{fill:none;stroke:#17B5C8;stroke-width:2;stroke-miterlimit:10;}
</style>

<g
   id="g10377"
   transform="matrix(0.40305523,0,0,0.40305523,92.849245,30.391012)"><path
     style="fill:#a6d100"
     id="path9695"
     d="m 154.23132,197.94242 h -6.7 c -41.9,0 -75.800004,-33.9 -75.800004,-75.8 V 75.842421 c 0,-41.9 33.900004,-75.80000031 75.800004,-75.80000031 h 6.7 c 41.9,0 75.8,33.90000031 75.8,75.80000031 v 46.299999 c 0,41.8 -33.9,75.8 -75.8,75.8 z"
     class="st4"
     inkscape:connector-curvature="0" /><path
     style="fill:#89ab00"
     id="path9697"
     d="m 197.83132,14.842421 c 9.4,12.9 14.9,28.7 14.9,45.9 v 41.699999 c 0,43.2 -35,78.1 -78.1,78.1 h -2.1 c -17.1,0 -33.000004,-5.5 -45.900004,-14.9 14.200004,19.5 37.200004,32.3 63.200004,32.3 h 2.1 c 43.2,0 78.1,-35 78.1,-78.1 V 78.142421 c 0,-26 -12.7,-49.1 -32.2,-63.3 z"
     class="st5"
     inkscape:connector-curvature="0" /><g
     id="g9701"
     transform="translate(1.7313163,-0.65757931)"><path
       id="path9699"
       d="m 150.2,199.6 h -2.1 c -43.7,0 -79.2,-35.5 -79.2,-79.2 V 78.8 c 0,-43.7 35.5,-79.2 79.2,-79.2 h 2.1 c 3,0 6,0.2 9,0.5 0.6,0.1 1,0.6 0.9,1.1 -0.1,0.5 -0.6,1 -1.1,0.9 -2.9,-0.3 -5.8,-0.5 -8.7,-0.5 h -2.1 C 105.6,1.7 71,36.2 71,78.8 v 41.7 c 0,42.5 34.6,77.1 77.1,77.1 h 2.1 c 42.5,0 77.1,-34.6 77.1,-77.1 V 78.8 c 0,-26.6 -13.4,-51 -35.9,-65.2 -0.5,-0.3 -0.6,-0.9 -0.3,-1.4 0.3,-0.5 0.9,-0.6 1.4,-0.3 23.1,14.6 36.9,39.6 36.9,67 v 41.7 c 0,43.5 -35.5,79 -79.2,79 z"
       inkscape:connector-curvature="0" /></g><g
     id="g9705"
     transform="translate(1.7313163,-0.65757931)"><path
       id="path9703"
       d="m 180.1,7.6 c -0.1,0 -0.3,0 -0.4,-0.1 -2.5,-1 -5,-1.9 -7.6,-2.7 -0.5,-0.2 -0.9,-0.7 -0.7,-1.3 0.2,-0.5 0.7,-0.9 1.3,-0.7 2.6,0.8 5.3,1.7 7.8,2.8 0.5,0.2 0.8,0.8 0.6,1.3 -0.2,0.4 -0.6,0.7 -1,0.7 z"
       inkscape:connector-curvature="0" /></g><g
     id="g9709"
     transform="translate(1.7313163,-0.65757931)"><path
       id="path9707"
       d="m 86.4,141.6 c -0.3,0 -0.5,-0.1 -0.7,-0.3 -0.4,-0.4 -0.4,-1.1 0,-1.5 3.2,-3.2 3.9,-15.1 3.9,-19.4 V 78.8 c 0,-16 6.4,-30.9 17.9,-42.1 0.4,-0.4 1.1,-0.4 1.5,0 0.4,0.4 0.4,1.1 0,1.5 C 97.8,48.9 91.6,63.3 91.6,78.8 v 41.7 c 0,0.7 0.1,16.3 -4.5,20.9 -0.1,0.1 -0.4,0.2 -0.7,0.2 z"
       inkscape:connector-curvature="0" /></g><g
     id="g9713"
     transform="translate(1.7313163,-0.65757931)"><path
       id="path9711"
       d="m 207.3,72.6 c -0.5,0 -1,-0.4 -1,-0.9 -3.5,-28.2 -27.6,-49.4 -56.1,-49.4 h -2.1 c -9.2,0 -18.3,2.3 -26.4,6.5 -0.5,0.3 -1.1,0.1 -1.4,-0.4 -0.3,-0.5 -0.1,-1.1 0.4,-1.4 8.4,-4.4 17.8,-6.8 27.3,-6.8 h 2.1 c 29.5,0 54.4,22 58.1,51.2 0.1,0.6 -0.3,1.1 -0.9,1.2 0.1,0 0,0 0,0 z"
       inkscape:connector-curvature="0" /></g><g
     id="g9717"
     transform="translate(1.7313163,-0.65757931)"><path
       id="path9715"
       d="m 97.8,162.4 c -0.3,0 -0.5,-0.1 -0.7,-0.3 -0.4,-0.4 -0.4,-1.1 0,-1.5 14.2,-14.2 13.1,-40.8 13.1,-41.1 V 78.7 c 0,-20.9 17,-37.9 37.9,-37.9 h 2.1 c 20.9,0 37.9,17 37.9,37.9 V 87 c 0,0.6 -0.5,1 -1,1 -0.5,0 -1,-0.5 -1,-1 V 78.7 C 186.1,58.9 170,42.8 150.2,42.8 h -2.1 c -19.8,0 -35.9,16.1 -35.9,35.9 v 40.7 c 0,0.2 0.3,7 -1.2,15.6 -1.4,8 -4.7,19.2 -12.5,27 -0.2,0.3 -0.4,0.4 -0.7,0.4 z"
       inkscape:connector-curvature="0" /></g><g
     id="g9721"
     transform="translate(1.7313163,-0.65757931)"><path
       id="path9719"
       d="m 114.8,176.8 c -0.3,0 -0.5,-0.1 -0.7,-0.3 -0.4,-0.4 -0.4,-1.1 0,-1.5 24,-24 21.9,-55.3 21.8,-55.6 V 79.7 c 0,-7.3 5.9,-13.2 13.2,-13.2 7.3,0 13.2,5.9 13.2,13.2 v 39.6 c 0,0.6 -0.5,1 -1,1 -0.5,0 -1,-0.5 -1,-1 V 79.8 c 0,-6.2 -5,-11.2 -11.2,-11.2 -6.2,0 -11.2,5 -11.2,11.2 v 39.6 c 0,0.2 2.2,32.5 -22.5,57.1 -0.1,0.2 -0.3,0.3 -0.6,0.3 z"
       inkscape:connector-curvature="0" /></g><g
     id="g9725"
     transform="translate(1.7313163,-0.65757931)"><path
       id="path9723"
       d="m 172.5,180.8 c -0.2,0 -0.4,0 -0.5,-0.1 -0.5,-0.3 -0.7,-0.9 -0.4,-1.4 13.9,-23.6 14.3,-56.4 14.3,-56.7 0,-0.6 0.5,-1 1,-1 0,0 0,0 0,0 0.6,0 1,0.5 1,1 0,0.3 -0.4,33.7 -14.6,57.7 -0.1,0.4 -0.4,0.5 -0.8,0.5 z"
       inkscape:connector-curvature="0" /></g><g
     id="g9729"
     transform="translate(1.7313163,-0.65757931)"><path
       id="path9727"
       d="m 140.8,185.6 c -0.3,0 -0.5,-0.1 -0.7,-0.3 -0.4,-0.4 -0.4,-1.1 0,-1.5 14.5,-14.5 19.5,-41.3 19.6,-41.6 0.1,-0.6 0.6,-0.9 1.2,-0.8 0.6,0.1 0.9,0.6 0.8,1.2 -0.2,1.1 -5.2,27.7 -20.2,42.6 -0.1,0.3 -0.4,0.4 -0.7,0.4 z"
       inkscape:connector-curvature="0" /></g><g
     id="g9733"
     transform="translate(1.7313163,-0.65757931)"><path
       id="path9731"
       d="m 186.7,109.9 c -0.6,0 -1,-0.5 -1,-1 v -6.4 c 0,-0.6 0.5,-1 1,-1 0.5,0 1,0.5 1,1 v 6.4 c 0,0.5 -0.4,1 -1,1 z"
       inkscape:connector-curvature="0" /></g></g><path
   style="fill:#17b5c8;stroke:#000000;stroke-width:2.5;stroke-linecap:butt;stroke-linejoin:miter;stroke-miterlimit:4;stroke-dasharray:none;stroke-opacity:1"
   d="m 99.907435,32.657125 c -4.890202,7.165577 -7.067697,13.541767 -7.916592,21.680373 -0.848895,8.138606 0.627905,16.377803 5.040486,23.945741 5.207221,7.9161 24.713511,-0.421679 19.878771,-9.287424 -8.92117,-17.244881 10.32708,-41.415022 33.88273,-42.940531 23.16904,-1.500471 45.84726,17.498619 45.58521,44.660625 -0.19278,19.982168 -14.91115,31.437101 -26.345,46.055701 -9.79765,12.52665 -23.86985,31.67927 -23.74983,50.29505 l 21.66153,-0.14291 c 2.2013,-14.84813 18.77449,-34.9169 32.55641,-51.49794 C 223.12537,88.206573 218.58356,67.003718 217.73674,57.876663 216.36703,43.113989 207.80084,30.888292 197.10683,21.051797 185.97396,10.811637 168.93753,3.1934881 145.95234,4.6458864 136.64005,5.2343155 127.8232,8.23888 120.11187,12.887732 c -3.85567,2.324425 -7.43495,5.059923 -10.6616,8.110011 -3.22664,3.050088 -2.70988,2.517112 -4.39118,4.513532"
   id="path10379"
   inkscape:connector-curvature="0"
   sodipodi:nodetypes="csccsssccssssssc" /><path
   style="opacity:1;fill:#11778e;fill-opacity:1;fill-rule:nonzero;stroke:#000000;stroke-width:2.5;stroke-linecap:round;stroke-linejoin:round;stroke-miterlimit:4;stroke-dasharray:none;stroke-dashoffset:0;stroke-opacity:1"
   d="m 168.40574,192.61859 v 5.73628 h -22.94509 v -22.9451 h 5.73627 5.73627 5.73628 5.73627 v 5.73628 5.73627"
   id="rect10452"
   inkscape:connector-curvature="0"
   sodipodi:nodetypes="cccccccccc" /><path
   style="fill:#11778e;stroke:none;stroke-width:2.5;stroke-linecap:butt;stroke-linejoin:miter;stroke-miterlimit:4;stroke-dasharray:none;stroke-opacity:1"
   d="m 153.65536,147.99041 c -3.37074,4.00864 -5.89829,13.29398 -5.95034,17.89339 6.16563,-0.0746 13.13994,0.16754 19.15746,-0.0705 3.2705,-15.41245 28.44311,-46.45998 33.85445,-52.73291 9.56447,-11.08733 20.02385,-32.402425 16.01105,-52.692391 -1.22143,-19.009671 -14.16917,-36.024677 -31.04457,-46.046065 43.20191,46.024452 15.13965,80.646105 7.35445,92.374556 -8.44992,11.06373 -26.63546,22.52152 -39.3825,41.27393 z"
   id="path10379-1"
   inkscape:connector-curvature="0"
   sodipodi:nodetypes="cccscccc" /></svg>